<svg xmlns="http://www.w3.org/2000/svg" viewBox="0 0 607.81 202.05"><defs><style>.cls-1{fill:#9edd9f;}.cls-2{fill:#22cd54;}</style></defs><g id="Ebene_4" data-name="Ebene 4"><path d="M97.83,51.24V87.1s-14.35,18.64-43,18.64c-30.13,0-53.08-22.95-53.08-51.63S24.67,2.47,54.8,2.47A51.74,51.74,0,0,1,95.68,21.83l-10.05,10A38.19,38.19,0,0,0,54.8,16.81a37.3,37.3,0,1,0,0,74.59c18.64,0,27.25-10,27.25-10V65.58H62.68L46.27,58.41l16.41-7.17Z"/><path d="M194.12,90v14.34H121.68V3.9h71V18.24H137.46V44.78h43.75V59.13H137.46V90Z"/><path d="M215.64,3.9h15.78V104.31H215.64Z"/><path d="M442,90v14.34H369.59V3.9h71V18.24H385.37V44.78h43.75V59.13H385.37V90Z"/><path d="M459.54,3.9h42.32c18.65,0,32.27,13.63,32.27,30.84,0,22.23-20.08,29.41-20.08,29.41l23,40.16H519.79L498.27,65.58H475.32v38.73H459.54Zm42.32,14.34H475.32v33h26.54a16.24,16.24,0,0,0,16.5-16.5A16.24,16.24,0,0,0,501.86,18.24Z"/><path d="M347.12,51.24V87.1s-14.34,18.64-43,18.64C274,105.74,251,82.79,251,54.11S274,2.47,304.09,2.47A51.74,51.74,0,0,1,345,21.83l-10,10a38.2,38.2,0,0,0-30.84-15.06,37.3,37.3,0,1,0,0,74.59c18.65,0,27.25-10,27.25-10V65.58H312l-16.41-7.17L312,51.24Z"/><polygon points="493.81 57.49 491.16 34.93 507.25 50.58 514.05 64.15 498.27 65.58 493.81 57.49"/></g><g id="green1"><path class="cls-1" d="M525.32,136.84l-.43,0a32.73,32.73,0,0,1-11.42-3.23,4.5,4.5,0,1,1,4-8.07,23.67,23.67,0,0,0,8.29,2.34,4.5,4.5,0,0,1-.42,9Z"/><path class="cls-1" d="M544,132a4.5,4.5,0,0,1-2.54-8.22c.54-.37,1.07-.76,1.58-1.17a24,24,0,0,0-8.91-41.82,4.5,4.5,0,0,1,2.3-8.7,33,33,0,0,1,12.27,57.51c-.7.57-1.43,1.11-2.17,1.62A4.48,4.48,0,0,1,544,132Z"/><path class="cls-1" d="M503.62,123.18a4.47,4.47,0,0,1-3.85-2.18,33,33,0,0,1-3.21-26.88,4.5,4.5,0,0,1,8.58,2.7,24.1,24.1,0,0,0,2.33,19.54,4.5,4.5,0,0,1-3.85,6.82Z"/><path class="cls-2" d="M528.47,156.76a53.32,53.32,0,0,1-51.3-38,4.5,4.5,0,0,1,8.61-2.62,44.63,44.63,0,0,0,81.75,8.58,4.5,4.5,0,0,1,7.88,4.36A53.69,53.69,0,0,1,528.47,156.76Z"/><path class="cls-2" d="M577.35,112.66a3.55,3.55,0,0,1-.46,0,4.49,4.49,0,0,1-4-4.93c.15-1.5.23-3,.23-4.57A44.67,44.67,0,0,0,540,60a4.5,4.5,0,1,1,2.31-8.69,53.67,53.67,0,0,1,39.79,51.81c0,1.83-.1,3.67-.28,5.48A4.51,4.51,0,0,1,577.35,112.66Z"/><path class="cls-1" d="M531.15,178.54a74.56,74.56,0,0,1-22.29-3.4,4.5,4.5,0,0,1,2.68-8.59A65.6,65.6,0,0,0,556.32,43.38a4.5,4.5,0,1,1,3.45-8.31,74.59,74.59,0,0,1-28.62,143.47Z"/><path class="cls-2" d="M527.28,200.59A93.54,93.54,0,0,1,437.73,135a4.5,4.5,0,1,1,8.59-2.71,85,85,0,0,0,107.75,55,4.5,4.5,0,0,1,2.83,8.54A93.59,93.59,0,0,1,527.28,200.59Z"/><path class="cls-1" d="M478.49,154.6a4,4,0,0,1-2.78-1.12,75,75,0,0,1-15.9-22.23,4,4,0,1,1,7.24-3.39,67,67,0,0,0,14.22,19.86,4,4,0,0,1-2.78,6.88Z"/></g></svg>